<svg preserveAspectRatio="none" overflow="visible" style="display: block;" width="32" height="40" viewBox="0 0 32 40" fill="none" xmlns="http://www.w3.org/2000/svg">
<g id="yandex-maps-logo 1" clip-path="url(#clip0_0_12)">
<path id="Vector" fill-rule="evenodd" clip-rule="evenodd" d="M1.45249e-05 15.9993C1.45249e-05 7.16349 7.16355 0 16.0006 0C24.8365 0 32 7.16349 32 15.9993C32 20.4172 30.21 24.4155 27.317 27.3109C26.5611 28.0668 25.5377 28.9107 24.4312 29.8247C21.2981 32.4098 17.4958 35.5476 17.1999 38.7995C17.1404 39.4592 16.6626 40 15.9994 40C15.3374 40 14.8596 39.4592 14.8001 38.7995C14.5042 35.5476 10.7019 32.4098 7.56885 29.8247C6.46348 28.9107 5.44012 28.0668 4.68418 27.3109C1.68005 24.3137 -0.00570858 20.2428 1.45249e-05 15.9993ZM21.6012 16.0005C21.6462 19.0932 19.1755 21.6369 16.0828 21.682C12.99 21.727 10.4463 19.2564 10.4012 16.1636C10.4004 16.1092 10.4004 16.0549 10.4012 16.0005C10.4463 12.9077 12.99 10.4371 16.0828 10.4821C19.112 10.5262 21.557 12.9712 21.6012 16.0005Z" fill="#FF4433"/>
</g>
<defs>
<clipPath id="clip0_0_12">
<rect width="32" height="40" fill="white"/>
</clipPath>
</defs>
</svg>
